<svg xmlns="http://www.w3.org/2000/svg" width="90.73" height="80.668" viewBox="0 0 90.73 80.668">
  <g id="leaf-solid" transform="translate(-509 -861.047)">
    <path id="leaf-solid-2" data-name="leaf-solid" d="M86.091,1.508a2.451,2.451,0,0,0-4.458-.189A27.014,27.014,0,0,1,58.018,15.1h-12.6A30.254,30.254,0,0,0,15.169,45.35a31.148,31.148,0,0,0,.236,3.229c10.051-7.2,24.559-13.312,45.133-13.312a2.521,2.521,0,0,1,0,5.041c-39.6,0-56.4,24.276-60.115,33.4a5.048,5.048,0,0,0,9.342,3.828c.236-.567,3.292-7.546,11.327-14.272A30.179,30.179,0,0,0,48.645,75.423c24.733-1.8,42.14-23.977,42.14-51.135A57.285,57.285,0,0,0,86.091,1.508Z" transform="translate(508.945 861.07)" fill="#a5b025"/>
  </g>
</svg>
