<svg xmlns="http://www.w3.org/2000/svg" width="87" height="95.2" viewBox="0 0 87 95.2">
  <g id="Símbolo_10_1" data-name="Símbolo 10 – 1" transform="translate(-247 -847)">
    <path id="hands-solid" d="M27.84,86.62a4.35,4.35,0,1,0-6.96,5.22l5.179,6.906a2.173,2.173,0,0,1-.2,2.841l-1.74,1.74a2.162,2.162,0,0,1-3.208-.15L8.7,88.523V68.35a4.35,4.35,0,1,0-8.7,0V98.039a6.532,6.532,0,0,0,1.427,4.078l14.151,18.256a8.114,8.114,0,0,1,1.414,2.95,2.13,2.13,0,0,0,2.08,1.577h17.9a2.181,2.181,0,0,0,2.175-2.175V107.5a17.427,17.427,0,0,0-3.48-10.44L27.84,86.62ZM82.65,64a4.345,4.345,0,0,0-4.35,4.35V88.523L66.093,103.177a2.183,2.183,0,0,1-3.208.15l-1.74-1.74a2.173,2.173,0,0,1-.2-2.841L66.12,91.84a4.35,4.35,0,0,0-6.96-5.22L51.33,97.06a17.427,17.427,0,0,0-3.48,10.44v15.225a2.181,2.181,0,0,0,2.175,2.175h17.9a2.142,2.142,0,0,0,2.08-1.577,8.114,8.114,0,0,1,1.414-2.95l14.151-18.256A6.532,6.532,0,0,0,87,98.039V68.35A4.345,4.345,0,0,0,82.65,64Z" transform="translate(247 817.3)" fill="#a5b025"/>
    <path id="heart-solid" d="M48.789,35.2C43,30.271,34.4,31.158,29.092,36.636l-2.08,2.143-2.08-2.143c-5.3-5.478-13.913-6.365-19.7-1.436A15.157,15.157,0,0,0,4.19,57.146L24.616,78.237a3.309,3.309,0,0,0,4.782,0L49.823,57.146A15.148,15.148,0,0,0,48.789,35.2Z" transform="translate(263.489 815.033)" fill="#a5b025"/>
  </g>
</svg>
