<svg xmlns="http://www.w3.org/2000/svg" width="92.4" height="92.4" viewBox="0 0 92.4 92.4">
  <g id="recycle-solid" transform="translate(-1029 -849)">
    <path id="recycle-solid-2" data-name="recycle-solid" d="M33.308,47.265a2.89,2.89,0,0,1-4.344,3.1l-7.352-4.594-9.18,14.69a5.785,5.785,0,0,0,4.895,8.84H26.71a2.166,2.166,0,0,1,2.166,2.166v7.219a2.166,2.166,0,0,1-2.166,2.166H17.346A17.336,17.336,0,0,1,2.654,54.342l9.172-14.688-7.35-4.593A2.89,2.89,0,0,1,5.357,29.8l19.894-4.593a2.887,2.887,0,0,1,3.463,2.164Zm17.787-33.01,7.451,11.925-7.352,4.594a2.89,2.89,0,0,0,.881,5.262l19.894,4.593a2.887,2.887,0,0,0,3.463-2.164L80.024,18.57a2.89,2.89,0,0,0-4.343-3.1L68.338,20.06,60.892,8.134a17.334,17.334,0,0,0-29.383,0l-3.242,5.191a2.166,2.166,0,0,0,.689,2.984l6.121,3.825a2.166,2.166,0,0,0,2.984-.689L41.3,14.258a5.781,5.781,0,0,1,9.792,0Zm38.65,40.088L84.779,46.39a2.166,2.166,0,0,0-2.985-.69l-6.111,3.819a2.166,2.166,0,0,0-.689,2.984l4.974,7.961a5.785,5.785,0,0,1-4.9,8.836H57.75V60.64A2.889,2.889,0,0,0,52.821,58.6L38.383,73.033a2.887,2.887,0,0,0,0,4.083L52.821,91.552A2.889,2.889,0,0,0,57.75,89.51v-8.66h17.3A17.336,17.336,0,0,0,89.745,54.342Z" transform="translate(1029 849)" fill="#a5b025"/>
  </g>
</svg>
