<svg xmlns="http://www.w3.org/2000/svg" width="76.439" height="97.728" viewBox="0 0 76.439 97.728">
  <g id="pagelines-brands" transform="translate(-773 -844)">
    <path id="pagelines-brands-2" data-name="pagelines-brands" d="M76.476,70.662c-10.969,27.214-37.248,10.75-37.248,10.75C31.165,97.7,17.847,108.168,2.478,108.228c-3.205,0-3.3-4.858,0-4.858,12.821-.06,23.989-8.5,31.3-21.919C25.591,84.617,10.163,87.006,1.6,65.087c21.7-8.939,31.673,2.23,35.5,9.058a72.393,72.393,0,0,0,4.3-15.867s-27.811,4.36-29.762-19.53c23.71-9.536,30.379,15.269,30.379,15.269.319-3.325.657-10.472.657-10.631,0,0-21.162-14.672-7.585-32.888,24.805,8.56,12.223,32.33,12.223,32.33.1.319.1,4.738,0,6.649,0,0,9-17.718,27.154-11.447-.836,26.677-28.249,21.182-28.249,21.182a83.758,83.758,0,0,1-3.982,15.429S58.758,56.368,76.476,70.662Z" transform="translate(772.963 833.5)" fill="#a5b025"/>
  </g>
</svg>
