<svg xmlns="http://www.w3.org/2000/svg" width="13.281" height="13.281" viewBox="0 0 13.281 13.281">
  <path id="Trazado_3" data-name="Trazado 3" d="M6.64,1.18A20.361,20.361,0,0,1,9.3,1.254a3.422,3.422,0,0,1,1.254.221A2.591,2.591,0,0,1,11.8,2.73a3.422,3.422,0,0,1,.221,1.254c0,.664.074.885.074,2.656A20.36,20.36,0,0,1,12.026,9.3a3.422,3.422,0,0,1-.221,1.254A2.591,2.591,0,0,1,10.551,11.8a3.422,3.422,0,0,1-1.254.221c-.664,0-.885.074-2.656.074a20.36,20.36,0,0,1-2.656-.074A3.422,3.422,0,0,1,2.73,11.8a2.591,2.591,0,0,1-1.254-1.254A3.422,3.422,0,0,1,1.254,9.3c0-.664-.074-.885-.074-2.656a20.36,20.36,0,0,1,.074-2.656A3.422,3.422,0,0,1,1.476,2.73a2.65,2.65,0,0,1,.516-.738,1.247,1.247,0,0,1,.738-.516,3.422,3.422,0,0,1,1.254-.221A20.36,20.36,0,0,1,6.64,1.18M6.64,0A21.8,21.8,0,0,0,3.91.074a4.555,4.555,0,0,0-1.623.3,2.888,2.888,0,0,0-1.18.738,2.888,2.888,0,0,0-.738,1.18,3.362,3.362,0,0,0-.3,1.623A21.8,21.8,0,0,0,0,6.64,21.8,21.8,0,0,0,.074,9.37a4.555,4.555,0,0,0,.3,1.623,2.888,2.888,0,0,0,.738,1.18,2.888,2.888,0,0,0,1.18.738,4.555,4.555,0,0,0,1.623.3,21.8,21.8,0,0,0,2.73.074,21.8,21.8,0,0,0,2.73-.074,4.555,4.555,0,0,0,1.623-.3,3.1,3.1,0,0,0,1.918-1.918,4.555,4.555,0,0,0,.3-1.623c0-.738.074-.959.074-2.73a21.8,21.8,0,0,0-.074-2.73,4.555,4.555,0,0,0-.3-1.623,2.888,2.888,0,0,0-.738-1.18,2.888,2.888,0,0,0-1.18-.738A4.555,4.555,0,0,0,9.37.074,21.8,21.8,0,0,0,6.64,0m0,3.246A3.339,3.339,0,0,0,3.246,6.64,3.394,3.394,0,1,0,6.64,3.246m0,5.607A2.174,2.174,0,0,1,4.427,6.64,2.174,2.174,0,0,1,6.64,4.427,2.174,2.174,0,0,1,8.854,6.64,2.174,2.174,0,0,1,6.64,8.854m3.541-6.566a.812.812,0,1,0,.812.812.819.819,0,0,0-.812-.812" fill="#fff" fill-rule="evenodd"/>
</svg>
