<svg xmlns="http://www.w3.org/2000/svg" width="13.281" height="10.772" viewBox="0 0 13.281 10.772">
  <path id="Trazado_2" data-name="Trazado 2" d="M42.206,12.772a7.678,7.678,0,0,0,7.747-7.747V4.656a6,6,0,0,0,1.328-1.4,6.125,6.125,0,0,1-1.549.443,2.871,2.871,0,0,0,1.18-1.476,6.767,6.767,0,0,1-1.7.664A2.635,2.635,0,0,0,47.223,2a2.772,2.772,0,0,0-2.73,2.73,1.438,1.438,0,0,0,.074.59,7.628,7.628,0,0,1-5.607-2.877,2.826,2.826,0,0,0-.369,1.4,2.931,2.931,0,0,0,1.18,2.287,2.487,2.487,0,0,1-1.254-.369h0A2.7,2.7,0,0,0,40.73,8.419a2.275,2.275,0,0,1-.738.074,1.256,1.256,0,0,1-.516-.074,2.8,2.8,0,0,0,2.582,1.918,5.571,5.571,0,0,1-3.394,1.18A2.043,2.043,0,0,1,38,11.444a6.964,6.964,0,0,0,4.206,1.328" transform="translate(-38 -2)" fill="#fff" fill-rule="evenodd"/>
</svg>
